# This file uses centimeters as units for non-parametric coordinates.

mtllib bordo1_collider.mtl
g default
v 7.348970 0.000000 43.132805
v 2.708166 0.000000 -1.739113
v -42.651032 0.000027 -6.867197
v 5.682035 0.000000 2.729742
v -2.263880 0.000000 -5.495001
v 7.348970 0.000000 8.584245
v -9.067952 0.000002 -6.867197
v 5.357771 0.000000 43.132805
v 5.357771 0.000000 9.917273
v 3.814802 0.000000 4.300072
v 0.999998 0.000000 0.000000
v -3.730172 0.000000 -3.559795
v -10.216679 0.000002 -4.875647
v -42.651032 0.000027 -4.875647
v 7.348970 5.000000 43.132805
v 7.348970 5.000000 8.584245
v 5.357771 5.000000 9.917273
v 5.357771 5.000000 43.132805
v 3.814802 5.000000 4.300072
v 5.682035 5.000000 2.729742
v 0.999998 5.000000 0.000000
v 2.708166 5.000000 -1.739113
v -3.730170 5.000000 -3.559795
v -2.263880 5.000000 -5.495001
v -10.216679 5.000002 -4.875647
v -9.067952 5.000002 -6.867197
v -42.651017 5.000028 -4.875647
v -42.651017 5.000028 -6.867197
vt 0.625000 0.250000
vt 0.625000 0.449300
vt 0.600110 0.442960
vt 0.600110 0.250000
vt 0.600110 0.458023
vt 0.625000 0.464821
vt 0.600110 0.491703
vt 0.625000 0.500000
vt 0.466902 0.424545
vt 0.478293 0.426647
vt 0.442721 0.411935
vt 0.452595 0.413797
vt 0.133297 0.250000
vt 0.125000 0.250000
vt 0.625000 0.250000
vt 0.625000 0.449300
vt 0.600110 0.442960
vt 0.600110 0.250000
vt 0.600110 0.458023
vt 0.625000 0.464821
vt 0.600110 0.491703
vt 0.625000 0.500000
vt 0.466902 0.424545
vt 0.478293 0.426647
vt 0.442721 0.411935
vt 0.452595 0.413797
vt 0.133297 0.250000
vt 0.125000 0.250000
vt 0.000000 0.000000
vt 0.059302 0.000000
vt 0.059302 1.000000
vt 0.000000 0.965794
vt 0.095439 0.000000
vt 1.000000 0.000000
vt 0.862542 0.284996
vt 0.000000 0.284012
vt 0.000567 0.000000
vt 1.000000 0.000000
vt 0.949519 0.387713
vt 0.000000 0.389425
vt 0.000000 0.000000
vt 0.951629 0.000000
vt 1.000000 0.429812
vt 0.088905 0.422912
vt 0.000000 0.000000
vt 0.892028 0.000000
vt 1.000000 0.334134
vt 0.146391 0.326186
vt 0.000000 0.000000
vt 1.000000 0.000000
vt 1.000000 0.057635
vt 0.038584 0.057635
vn 0.000000 1.000000 0.000000
vn 0.000000 1.000000 0.000000
vn 0.000000 1.000000 0.000000
vn 0.000000 1.000000 0.000000
vn 0.000000 1.000000 0.000000
vn 0.000000 1.000000 0.000000
vn 0.000000 1.000000 0.000000
vn 0.000000 1.000000 0.000000
vn 0.000000 1.000000 0.000000
vn 0.000000 1.000000 0.000000
vn 0.000001 1.000000 0.000000
vn 0.000001 1.000000 0.000000
vn 0.000001 1.000000 0.000000
vn 0.000001 1.000000 0.000000
vn 0.930139 -0.363273 0.053608
vn 0.960176 -0.276572 -0.039615
vn 0.999150 0.000000 -0.041223
vn 1.000000 0.000000 0.000000
vn -0.999212 0.000000 0.039702
vn -1.000000 0.000000 0.000000
vn -1.000000 0.000000 0.000000
vn -0.999212 0.000000 0.039702
vn 0.000000 -0.989286 0.145990
vn 0.000000 0.000000 1.000000
vn 0.000000 0.000000 1.000000
vn -0.915513 0.000000 0.402288
vn -0.915513 0.000000 0.402288
vn 0.843254 -0.381079 -0.379080
vn 0.912077 0.000000 -0.410019
vn -0.721410 0.000000 0.692508
vn -0.721410 0.000000 0.692508
vn 0.661206 -0.393387 -0.638790
vn 0.719192 0.000000 -0.694811
vn -0.398646 0.000000 0.917105
vn -0.398646 0.000000 0.917105
vn 0.371464 -0.366543 -0.853030
vn 0.399252 0.000000 -0.916841
vn -0.033789 0.000000 0.999429
vn -0.033789 0.000000 0.999429
vn 0.032476 -0.292066 -0.955847
vn 0.033956 0.000000 -0.999423
vn 0.000000 0.000000 1.000000
vn 0.000000 0.000000 1.000000
vn -0.055137 -0.364001 -0.929765
vn 0.000000 0.000000 -1.000000
vn -0.149767 -0.988721 -0.000000
vn -1.000000 0.000003 0.000000
vn -1.000000 0.000003 0.000000
vn -0.000001 -1.000000 -0.000000
vn -0.000000 -1.000000 -0.000000
vn -0.000000 -1.000000 -0.000000
vn -0.000000 -1.000000 0.000000
vn -0.000000 -1.000000 0.000000
vn 0.000000 -1.000000 0.000000
vn 0.000000 -1.000000 0.000000
vn 0.000000 -1.000000 0.000000
vn 0.000000 -1.000000 0.000000
vn 0.000000 -1.000000 0.000000
s 1
g polySurface4 polySurface2 curva44
usemtl initialShadingGroup
f 15/1/1 16/2/2 17/3/3 18/4/4
f 19/5/5 17/3/3 16/2/2 20/6/6
f 21/7/7 19/5/5 20/6/6 22/8/8
f 23/9/9 21/7/7 22/8/8 24/10/10
f 25/11/11 23/9/9 24/10/10 26/12/12
f 27/13/13 25/11/11 26/12/12 28/14/14
s 2
f 1/15/15 6/16/16 16/2/17 15/1/18
s 3
f 9/17/19 8/18/20 18/4/21 17/3/22
s 2
f 8/18/23 1/15/15 15/1/24 18/4/25
s 3
f 10/19/26 9/17/19 17/3/22 19/5/27
s 2
f 6/16/16 4/20/28 20/6/29 16/2/17
s 3
f 11/21/30 10/19/26 19/5/27 21/7/31
s 2
f 4/20/28 2/22/32 22/8/33 20/6/29
s 3
f 12/23/34 11/21/30 21/7/31 23/9/35
s 2
f 2/22/32 5/24/36 24/10/37 22/8/33
s 3
f 13/25/38 12/23/34 23/9/35 25/11/39
s 2
f 5/24/36 7/26/40 26/12/41 24/10/37
s 3
f 14/27/42 13/25/38 25/11/39 27/13/43
s 2
f 7/26/40 3/28/44 28/14/45 26/12/41
f 3/28/44 14/27/46 27/13/47 28/14/48
f 14/29/46 3/30/44 7/31/40 13/32/49
f 7/33/40 5/34/36 12/35/50 13/36/51
f 5/37/36 2/38/32 11/39/52 12/40/53
f 2/41/32 4/42/28 10/43/54 11/44/55
f 4/45/28 6/46/16 9/47/56 10/48/57
f 6/49/16 1/50/15 8/51/23 9/52/58
