# This file uses centimeters as units for non-parametric coordinates.

mtllib cerchio_laserX.mtl
g default
v 0.181393 4.300077 -1.326396
v 0.181393 3.718075 -2.534938
v 0.181392 2.805706 -3.518239
v 0.181392 1.644035 -4.188931
v 0.181393 0.336287 -4.487416
v 0.181393 -1.001343 -4.387175
v 0.181392 -2.249998 -3.897115
v 0.181393 -3.298732 -3.060778
v 0.181392 -4.054359 -1.952478
v 0.181392 -4.449738 -0.670691
v 0.181393 -4.449739 0.670689
v 0.181393 -4.054360 1.952476
v 0.181393 -3.298733 3.060776
v 0.181392 -2.250000 3.897114
v 0.181392 -1.001345 4.387175
v 0.181392 0.336285 4.487417
v 0.181393 1.644033 4.188932
v 0.181392 2.805704 3.518242
v 0.181393 3.718075 2.534940
v 0.181394 4.300077 1.326398
v 0.181393 4.500000 -0.000000
v -0.475529 4.630219 -1.428231
v -0.475528 4.003532 -2.729560
v -0.475528 3.021116 -3.788356
v -0.475528 1.770258 -4.510539
v -0.475528 0.362106 -4.831942
v -0.475528 -1.078220 -4.724004
v -0.475529 -2.422743 -4.196319
v -0.475528 -3.551995 -3.295772
v -0.475528 -4.365635 -2.102381
v -0.475529 -4.791370 -0.722184
v -0.475528 -4.791370 0.722182
v -0.475529 -4.365637 2.102379
v -0.475528 -3.551997 3.295770
v -0.475528 -2.422747 4.196318
v -0.475528 -1.078224 4.724004
v -0.475528 0.362103 4.831942
v -0.475529 1.770256 4.510541
v -0.475529 3.021114 3.788358
v -0.475528 4.003532 2.729563
v -0.475528 4.630220 1.428234
v -0.475528 4.845491 -0.000000
v -0.293893 5.164402 -1.593004
v -0.293893 4.465416 -3.044465
v -0.293893 3.369658 -4.225412
v -0.293892 1.974491 -5.030913
v -0.293893 0.403881 -5.389395
v -0.293893 -1.202614 -5.269006
v -0.293893 -2.702252 -4.680442
v -0.293893 -3.961784 -3.676000
v -0.293894 -4.869293 -2.344930
v -0.293893 -5.344142 -0.805502
v -0.293892 -5.344145 0.805499
v -0.293893 -4.869293 2.344927
v -0.293893 -3.961786 3.675998
v -0.293893 -2.702255 4.680441
v -0.293892 -1.202618 5.269006
v -0.293892 0.403879 5.389396
v -0.293892 1.974485 5.030915
v -0.293891 3.369656 4.225415
v -0.293893 4.465414 3.044468
v -0.293892 5.164402 1.593007
v -0.293892 5.404509 0.000000
v 0.181393 5.164402 -1.593004
v 0.181393 4.465416 -3.044465
v 0.181393 3.369658 -4.225412
v 0.181392 1.974491 -5.030913
v 0.181393 0.403881 -5.389395
v 0.181393 -1.202614 -5.269006
v 0.181393 -2.702252 -4.680442
v 0.181392 -3.961783 -3.676000
v 0.181393 -4.869293 -2.344930
v 0.181393 -5.344143 -0.805502
v 0.181393 -5.344145 0.805499
v 0.181393 -4.869294 2.344927
v 0.181393 -3.961785 3.675998
v 0.181392 -2.702255 4.680441
v 0.181393 -1.202618 5.269006
v 0.181392 0.403879 5.389396
v 0.181392 1.974487 5.030915
v 0.181393 3.369656 4.225415
v 0.181393 4.465414 3.044468
v 0.181393 5.164402 1.593007
v 0.181393 5.404509 0.000000
v -0.413926 3.907402 -3.108797
v -0.413926 3.392111 -3.664149
v -0.350827 4.077892 -3.207376
v -0.350827 3.503153 -3.826797
v -0.413926 -2.808105 -4.128794
v -0.413926 -3.400412 -3.656446
v -0.350827 -2.893666 -4.306175
v -0.350827 -3.554307 -3.779334
v -0.413926 -3.400414 3.656444
v -0.413926 -2.808107 4.128792
v -0.350827 -3.554309 3.779331
v -0.350827 -2.893669 4.306174
v -0.413926 3.392105 3.664151
v -0.413926 3.907398 3.108800
v -0.350827 3.503151 3.826799
v -0.350827 4.077888 3.207378
v -1.540874 3.923653 -3.281921
v -1.540875 3.565966 -3.667416
v -1.503251 4.028225 -3.337568
v -1.503251 3.629271 -3.767537
v -1.540876 -2.979528 -4.157936
v -1.540875 -3.390676 -3.830056
v -1.503250 -3.027205 -4.266374
v -1.503250 -3.485787 -3.900668
v -1.540874 -3.390681 3.830055
v -1.540874 -2.979532 4.157935
v -1.503251 -3.485790 3.900666
v -1.503250 -3.027210 4.266373
v -1.540876 3.565960 3.667418
v -1.540876 3.923649 3.281924
v -1.503250 3.629265 3.767540
v -1.503250 4.028217 3.337570
v -1.292511 3.768028 -3.407630
v -1.292511 3.679693 -3.502831
v -1.413072 3.764687 -3.431624
v -1.413072 3.703371 -3.497708
v -1.292511 -3.218058 3.931166
v -1.292511 -3.116522 4.012139
v -1.413071 -3.211180 3.954395
v -1.413071 -3.140699 4.010602
v -0.578376 -3.065873 -3.947431
v -0.578376 -3.166239 -3.867395
v -0.715665 -3.091070 -3.947542
v -0.715665 -3.160738 -3.891984
v -0.578376 3.619965 3.446396
v -0.578376 3.707279 3.352293
v -0.715665 3.644897 3.442748
v -0.715665 3.705505 3.377428
vt 0.000000 1.000000
vt 0.047619 1.000000
vt 0.095238 1.000000
vt 0.142857 1.000000
vt 0.190476 1.000000
vt 0.238095 1.000000
vt 0.285714 1.000000
vt 0.333333 1.000000
vt 0.380952 1.000000
vt 0.428571 1.000000
vt 0.476190 1.000000
vt 0.523810 1.000000
vt 0.571429 1.000000
vt 0.619048 1.000000
vt 0.666667 1.000000
vt 0.714286 1.000000
vt 0.761905 1.000000
vt 0.809524 1.000000
vt 0.857143 1.000000
vt 0.904762 1.000000
vt 0.952381 1.000000
vt 1.000000 1.000000
vt 0.000000 0.800000
vt 0.047619 0.800000
vt 0.095238 0.800000
vt 0.142857 0.800000
vt 0.190476 0.800000
vt 0.238095 0.800000
vt 0.285714 0.800000
vt 0.333333 0.800000
vt 0.380952 0.800000
vt 0.428571 0.800000
vt 0.476190 0.800000
vt 0.523810 0.800000
vt 0.571429 0.800000
vt 0.619048 0.800000
vt 0.666667 0.800000
vt 0.714286 0.800000
vt 0.761905 0.800000
vt 0.809524 0.800000
vt 0.857143 0.800000
vt 0.904762 0.800000
vt 0.952381 0.800000
vt 1.000000 0.800000
vt 0.000000 0.600000
vt 0.047619 0.600000
vt 0.095238 0.600000
vt 0.142857 0.600000
vt 0.190476 0.600000
vt 0.238095 0.600000
vt 0.285714 0.600000
vt 0.333333 0.600000
vt 0.380952 0.600000
vt 0.428571 0.600000
vt 0.476190 0.600000
vt 0.523810 0.600000
vt 0.571429 0.600000
vt 0.619048 0.600000
vt 0.666667 0.600000
vt 0.714286 0.600000
vt 0.761905 0.600000
vt 0.809524 0.600000
vt 0.857143 0.600000
vt 0.904762 0.600000
vt 0.952381 0.600000
vt 1.000000 0.600000
vt 0.000000 0.400000
vt 0.047619 0.400000
vt 0.095238 0.400000
vt 0.142857 0.400000
vt 0.190476 0.400000
vt 0.238095 0.400000
vt 0.285714 0.400000
vt 0.333333 0.400000
vt 0.380952 0.400000
vt 0.428571 0.400000
vt 0.476190 0.400000
vt 0.523810 0.400000
vt 0.571429 0.400000
vt 0.619048 0.400000
vt 0.666667 0.400000
vt 0.714286 0.400000
vt 0.761905 0.400000
vt 0.809524 0.400000
vt 0.857143 0.400000
vt 0.904762 0.400000
vt 0.952381 0.400000
vt 1.000000 0.400000
vt 0.000000 0.000000
vt 0.047619 0.000000
vt 0.095238 0.000000
vt 0.142857 0.000000
vt 0.190476 0.000000
vt 0.238095 0.000000
vt 0.285714 0.000000
vt 0.333333 0.000000
vt 0.380952 0.000000
vt 0.428571 0.000000
vt 0.476190 0.000000
vt 0.523810 0.000000
vt 0.571429 0.000000
vt 0.619048 0.000000
vt 0.666667 0.000000
vt 0.714286 0.000000
vt 0.761905 0.000000
vt 0.809524 0.000000
vt 0.857143 0.000000
vt 0.904762 0.000000
vt 0.952381 0.000000
vt 1.000000 0.000000
vt 0.095238 0.800000
vt 0.047619 0.800000
vt 0.047619 0.600000
vt 0.095238 0.600000
vt 0.333333 0.800000
vt 0.285714 0.800000
vt 0.285714 0.600000
vt 0.333333 0.600000
vt 0.619048 0.800000
vt 0.571429 0.800000
vt 0.571429 0.600000
vt 0.619048 0.600000
vt 0.857143 0.800000
vt 0.809524 0.800000
vt 0.809524 0.600000
vt 0.857143 0.600000
vt 0.095238 0.800000
vt 0.047619 0.800000
vt 0.047619 0.600000
vt 0.095238 0.600000
vt 0.333333 0.800000
vt 0.285714 0.800000
vt 0.285714 0.600000
vt 0.333333 0.600000
vt 0.619048 0.800000
vt 0.571429 0.800000
vt 0.571429 0.600000
vt 0.619048 0.600000
vt 0.857143 0.800000
vt 0.809524 0.800000
vt 0.809524 0.600000
vt 0.857143 0.600000
vt 0.095238 0.800000
vt 0.047619 0.800000
vt 0.047619 0.800000
vt 0.095238 0.800000
vt 0.619048 0.800000
vt 0.571429 0.800000
vt 0.571429 0.800000
vt 0.619048 0.800000
vt 0.333333 0.800000
vt 0.285714 0.800000
vt 0.285714 0.800000
vt 0.333333 0.800000
vt 0.857143 0.800000
vt 0.809524 0.800000
vt 0.809524 0.800000
vt 0.857143 0.800000
vn -0.465475 -0.731272 0.498572
vn -0.465475 -0.845740 0.260877
vn -0.465475 -0.845740 0.260877
vn -0.465475 -0.731272 0.498572
vn -0.465476 -0.551827 0.691968
vn -0.465476 -0.551827 0.691968
vn -0.465476 -0.323349 0.823880
vn -0.465476 -0.323349 0.823879
vn -0.465476 -0.066141 0.882586
vn -0.465476 -0.066141 0.882586
vn -0.465476 0.196944 0.862870
vn -0.465476 0.196944 0.862871
vn -0.465476 0.442530 0.766485
vn -0.465476 0.442530 0.766485
vn -0.465476 0.648795 0.601995
vn -0.465476 0.648795 0.601994
vn -0.465476 0.797412 0.384014
vn -0.465476 0.797412 0.384014
vn -0.465475 0.875176 0.131912
vn -0.465475 0.875175 0.131912
vn -0.465475 0.875176 -0.131911
vn -0.465475 0.875176 -0.131911
vn -0.465475 0.797412 -0.384013
vn -0.465475 0.797412 -0.384013
vn -0.465476 0.648795 -0.601994
vn -0.465476 0.648795 -0.601994
vn -0.465477 0.442530 -0.766485
vn -0.465477 0.442530 -0.766485
vn -0.465476 0.196945 -0.862870
vn -0.465476 0.196945 -0.862870
vn -0.465476 -0.066141 -0.882586
vn -0.465476 -0.066140 -0.882586
vn -0.465476 -0.323349 -0.823880
vn -0.465476 -0.323349 -0.823880
vn -0.465476 -0.551826 -0.691969
vn -0.465476 -0.551826 -0.691969
vn -0.465475 -0.731272 -0.498573
vn -0.465475 -0.731272 -0.498573
vn -0.465476 -0.845740 -0.260876
vn -0.465476 -0.845740 -0.260876
vn -0.465475 -0.885061 0.000001
vn -0.465475 -0.885061 0.000001
vn -0.950572 0.273183 -0.147597
vn -0.951057 0.295288 -0.091084
vn -0.951057 0.295288 -0.091084
vn -0.950577 0.273077 -0.147757
vn -0.950031 0.228826 -0.212320
vn -0.950031 0.228826 -0.212320
vn -0.950031 0.228826 -0.212320
vn -0.950031 0.228826 -0.212320
vn -0.951057 0.112897 -0.287656
vn -0.950572 0.167600 -0.261389
vn -0.950577 0.167751 -0.261272
vn -0.951057 0.112897 -0.287655
vn -0.951057 0.023093 -0.308152
vn -0.951057 0.023093 -0.308152
vn -0.951057 -0.068762 -0.301268
vn -0.951057 -0.068762 -0.301268
vn -0.950572 -0.126770 -0.283449
vn -0.950577 -0.126936 -0.283355
vn -0.950027 -0.194633 -0.244063
vn -0.950027 -0.194633 -0.244063
vn -0.950027 -0.194633 -0.244063
vn -0.950027 -0.194633 -0.244063
vn -0.951057 -0.278414 -0.134077
vn -0.950572 -0.248132 -0.186665
vn -0.950578 -0.248003 -0.186806
vn -0.951057 -0.278414 -0.134077
vn -0.951056 -0.305566 -0.046056
vn -0.951056 -0.305566 -0.046056
vn -0.951056 -0.305567 0.046057
vn -0.951056 -0.305566 0.046057
vn -0.951056 -0.278415 0.134077
vn -0.951056 -0.278415 0.134077
vn -0.950571 -0.248134 0.186665
vn -0.950577 -0.248005 0.186807
vn -0.950031 -0.194625 0.244053
vn -0.950031 -0.194625 0.244053
vn -0.950031 -0.194625 0.244053
vn -0.950031 -0.194625 0.244053
vn -0.951056 -0.068763 0.301270
vn -0.950571 -0.126770 0.283450
vn -0.950577 -0.126937 0.283356
vn -0.951056 -0.068763 0.301270
vn -0.951056 0.023093 0.308154
vn -0.951056 0.023093 0.308154
vn -0.951056 0.112897 0.287657
vn -0.951056 0.112897 0.287657
vn -0.950571 0.167601 0.261391
vn -0.950576 0.167752 0.261273
vn -0.950025 0.228840 0.212332
vn -0.950025 0.228840 0.212332
vn -0.950025 0.228840 0.212331
vn -0.950025 0.228840 0.212331
vn -0.951057 0.295288 0.091084
vn -0.950571 0.273183 0.147598
vn -0.950577 0.273077 0.147757
vn -0.951057 0.295288 0.091084
vn -0.951056 0.309017 0.000000
vn -0.951056 0.309017 0.000000
vn 0.000000 0.826239 -0.563320
vn 0.000000 0.955573 -0.294755
vn 0.000000 0.955573 -0.294755
vn 0.000000 0.826239 -0.563320
vn 0.000000 0.623490 -0.781831
vn 0.000000 0.623490 -0.781831
vn 0.000000 0.365341 -0.930874
vn 0.000000 0.365341 -0.930874
vn 0.000000 0.074730 -0.997204
vn 0.000000 0.074730 -0.997204
vn 0.000000 -0.222520 -0.974928
vn 0.000000 -0.222520 -0.974928
vn 0.000001 -0.499999 -0.866026
vn 0.000001 -0.499999 -0.866026
vn 0.000001 -0.733052 -0.680173
vn 0.000001 -0.733051 -0.680173
vn -0.000000 -0.900969 -0.433884
vn -0.000000 -0.900969 -0.433884
vn -0.000001 -0.988831 -0.149043
vn -0.000001 -0.988831 -0.149043
vn -0.000001 -0.988831 0.149042
vn -0.000001 -0.988831 0.149042
vn -0.000001 -0.900969 0.433884
vn -0.000001 -0.900969 0.433884
vn 0.000001 -0.733052 0.680172
vn 0.000001 -0.733052 0.680173
vn 0.000001 -0.500000 0.866025
vn 0.000001 -0.500000 0.866025
vn 0.000000 -0.222521 0.974928
vn 0.000000 -0.222521 0.974928
vn 0.000000 0.074730 0.997204
vn 0.000000 0.074730 0.997204
vn -0.000000 0.365341 0.930874
vn -0.000000 0.365341 0.930874
vn -0.000000 0.623489 0.781832
vn -0.000000 0.623490 0.781832
vn 0.000000 0.826239 0.563320
vn 0.000000 0.826239 0.563320
vn 0.000000 0.955573 0.294756
vn 0.000000 0.955573 0.294756
vn 0.000000 1.000000 -0.000000
vn 0.000000 1.000000 0.000000
vn 1.000000 -0.000000 0.000000
vn 1.000000 -0.000000 -0.000000
vn 1.000000 -0.000000 -0.000000
vn 1.000000 -0.000000 0.000000
vn 1.000000 -0.000000 0.000000
vn 1.000000 -0.000000 0.000000
vn 1.000000 -0.000000 0.000000
vn 1.000000 -0.000000 0.000000
vn 1.000000 0.000000 0.000001
vn 1.000000 0.000000 0.000001
vn 1.000000 -0.000000 0.000001
vn 1.000000 -0.000000 0.000001
vn 1.000000 -0.000000 0.000000
vn 1.000000 -0.000000 0.000000
vn 1.000000 -0.000000 -0.000000
vn 1.000000 -0.000000 -0.000000
vn 1.000000 0.000000 0.000000
vn 1.000000 0.000000 0.000000
vn 1.000000 0.000001 0.000000
vn 1.000000 0.000001 0.000000
vn 1.000000 0.000000 -0.000000
vn 1.000000 0.000000 -0.000000
vn 1.000000 -0.000000 0.000000
vn 1.000000 -0.000000 0.000000
vn 1.000000 -0.000000 0.000000
vn 1.000000 -0.000000 0.000000
vn 1.000000 -0.000000 0.000000
vn 1.000000 -0.000000 0.000000
vn 1.000000 -0.000000 -0.000000
vn 1.000000 0.000000 -0.000000
vn 1.000000 0.000000 0.000000
vn 1.000000 0.000000 0.000000
vn 1.000000 0.000000 0.000000
vn 1.000000 0.000000 0.000000
vn 1.000000 -0.000000 0.000000
vn 1.000000 -0.000000 0.000000
vn 1.000000 0.000000 0.000000
vn 1.000000 0.000000 0.000000
vn 1.000000 0.000001 0.000000
vn 1.000000 0.000001 0.000000
vn 1.000000 0.000001 -0.000000
vn 1.000000 0.000001 -0.000000
vn -0.950028 0.228834 -0.212326
vn -0.950028 0.228833 -0.212327
vn -0.950026 0.228837 -0.212329
vn -0.950026 0.228836 -0.212330
vn -0.950026 -0.194635 -0.244064
vn -0.950026 -0.194635 -0.244065
vn -0.950027 -0.194633 -0.244062
vn -0.950027 -0.194632 -0.244062
vn -0.950027 -0.194634 0.244063
vn -0.950027 -0.194634 0.244063
vn -0.950027 -0.194634 0.244063
vn -0.950027 -0.194634 0.244063
vn -0.950026 0.228837 0.212330
vn -0.950026 0.228837 0.212329
vn -0.950026 0.228838 0.212331
vn -0.950026 0.228838 0.212330
vn -0.120246 0.518651 0.846488
vn -0.120246 0.518651 0.846488
vn -0.120246 0.518651 0.846488
vn -0.120246 0.518651 0.846488
vn 0.045201 0.732302 -0.679478
vn 0.045201 0.732302 -0.679478
vn 0.045201 0.732302 -0.679478
vn 0.045201 0.732302 -0.679478
vn -0.120248 -0.805367 -0.580453
vn -0.120248 -0.805367 -0.580453
vn -0.120248 -0.805367 -0.580453
vn -0.120248 -0.805367 -0.580453
vn -0.120245 0.882880 -0.453943
vn -0.120245 0.882880 -0.453943
vn -0.120245 0.882880 -0.453943
vn -0.120245 0.882880 -0.453943
vn 0.045199 -0.622851 -0.781034
vn 0.045199 -0.622851 -0.781034
vn 0.045199 -0.622851 -0.781034
vn 0.045199 -0.622851 -0.781034
vn -0.120246 -0.639019 0.759734
vn -0.120246 -0.639019 0.759734
vn -0.120246 -0.639019 0.759734
vn -0.120246 -0.639019 0.759734
vn -0.120246 -0.639021 -0.759732
vn -0.120246 -0.639021 -0.759732
vn -0.120246 -0.639021 -0.759732
vn -0.120246 -0.639021 -0.759732
vn 0.045200 -0.622853 0.781032
vn 0.045200 -0.622853 0.781032
vn 0.045200 -0.622853 0.781032
vn 0.045200 -0.622853 0.781032
vn -0.120247 0.882880 0.453943
vn -0.120247 0.882880 0.453943
vn -0.120247 0.882880 0.453943
vn -0.120247 0.882880 0.453943
vn -0.120246 -0.805363 0.580458
vn -0.120246 -0.805363 0.580458
vn -0.120246 -0.805363 0.580458
vn -0.120246 -0.805363 0.580458
vn 0.045199 0.732303 0.679477
vn 0.045199 0.732303 0.679477
vn 0.045199 0.732303 0.679477
vn 0.045199 0.732303 0.679477
vn -0.120246 0.518657 -0.846484
vn -0.120246 0.518657 -0.846484
vn -0.120246 0.518657 -0.846485
vn -0.120246 0.518657 -0.846484
vn -0.114305 -0.728247 0.675715
vn -0.114305 -0.728247 0.675716
vn -0.114305 -0.728246 0.675716
vn -0.114306 -0.728248 0.675714
vn -0.114306 -0.728245 0.675717
vn -0.114307 -0.728246 0.675716
vn -0.114308 -0.728250 0.675711
vn -0.114308 -0.728250 0.675711
vn -0.114305 0.619403 -0.776708
vn -0.114305 0.619403 -0.776708
vn -0.114306 0.619403 -0.776708
vn -0.114305 0.619402 -0.776708
vn -0.114307 0.619402 -0.776708
vn -0.114306 0.619402 -0.776708
vn -0.114306 0.619401 -0.776709
vn -0.114305 0.619401 -0.776709
vn 1.000000 -0.000001 0.000000
vn 1.000000 -0.000001 0.000000
vn 1.000000 -0.000001 0.000000
vn 1.000000 -0.000001 0.000000
vn -0.153833 0.724326 0.672077
vn -0.153833 0.724326 0.672077
vn -0.153833 0.724326 0.672077
vn -0.153833 0.724326 0.672077
vn -1.000000 -0.000001 -0.000000
vn -1.000000 -0.000001 -0.000000
vn -1.000000 -0.000001 -0.000000
vn -1.000000 -0.000001 -0.000000
vn -0.170345 -0.722337 -0.670232
vn -0.170345 -0.722337 -0.670232
vn -0.170345 -0.722337 -0.670232
vn -0.170345 -0.722337 -0.670232
vn -0.114303 0.619403 0.776707
vn -0.114305 0.619403 0.776708
vn -0.114305 0.619402 0.776708
vn -0.114304 0.619403 0.776708
vn -0.114304 0.619403 0.776708
vn -0.114304 0.619403 0.776708
vn -0.114304 0.619403 0.776708
vn -0.114303 0.619403 0.776707
vn -0.114305 -0.728242 -0.675721
vn -0.114305 -0.728248 -0.675714
vn -0.114304 -0.728248 -0.675715
vn -0.114304 -0.728243 -0.675720
vn -0.114307 -0.728247 -0.675715
vn -0.114307 -0.728247 -0.675714
vn -0.114307 -0.728245 -0.675716
vn -0.114307 -0.728244 -0.675718
vn 1.000000 0.000000 0.000000
vn 1.000000 0.000000 0.000000
vn 1.000000 0.000000 0.000000
vn 1.000000 0.000000 0.000000
vn -0.132805 0.726559 -0.674148
vn -0.132805 0.726559 -0.674148
vn -0.132805 0.726559 -0.674148
vn -0.132805 0.726559 -0.674148
vn -1.000000 -0.000001 -0.000000
vn -1.000000 -0.000001 -0.000000
vn -1.000000 -0.000001 -0.000000
vn -1.000000 -0.000001 -0.000000
vn -0.149498 -0.724814 0.672529
vn -0.149498 -0.724814 0.672529
vn -0.149498 -0.724814 0.672529
vn -0.149498 -0.724814 0.672529
s 1
g cerchio_laser1
usemtl initialShadingGroup
f 2/2/1 1/1/2 22/23/3 23/24/4
f 3/3/5 2/2/1 23/24/4 24/25/6
f 4/4/7 3/3/5 24/25/6 25/26/8
f 5/5/9 4/4/7 25/26/8 26/27/10
f 6/6/11 5/5/9 26/27/10 27/28/12
f 7/7/13 6/6/11 27/28/12 28/29/14
f 8/8/15 7/7/13 28/29/14 29/30/16
f 9/9/17 8/8/15 29/30/16 30/31/18
f 10/10/19 9/9/17 30/31/18 31/32/20
f 11/11/21 10/10/19 31/32/20 32/33/22
f 12/12/23 11/11/21 32/33/22 33/34/24
f 13/13/25 12/12/23 33/34/24 34/35/26
f 14/14/27 13/13/25 34/35/26 35/36/28
f 15/15/29 14/14/27 35/36/28 36/37/30
f 16/16/31 15/15/29 36/37/30 37/38/32
f 17/17/33 16/16/31 37/38/32 38/39/34
f 18/18/35 17/17/33 38/39/34 39/40/36
f 19/19/37 18/18/35 39/40/36 40/41/38
f 20/20/39 19/19/37 40/41/38 41/42/40
f 21/21/41 20/20/39 41/42/40 42/43/42
f 1/22/2 21/21/41 42/43/42 22/44/3
s 2
f 23/24/43 22/23/44 43/45/45 44/46/46
s off
f 102/127/47 101/128/48 103/129/49 104/130/50
s 2
f 25/26/51 24/25/52 45/47/53 46/48/54
f 26/27/55 25/26/51 46/48/54 47/49/56
f 27/28/57 26/27/55 47/49/56 48/50/58
f 28/29/59 27/28/57 48/50/58 49/51/60
s off
f 106/131/61 105/132/62 107/133/63 108/134/64
s 2
f 30/31/65 29/30/66 50/52/67 51/53/68
f 31/32/69 30/31/65 51/53/68 52/54/70
f 32/33/71 31/32/69 52/54/70 53/55/72
f 33/34/73 32/33/71 53/55/72 54/56/74
f 34/35/75 33/34/73 54/56/74 55/57/76
s off
f 110/135/77 109/136/78 111/137/79 112/138/80
s 2
f 36/37/81 35/36/82 56/58/83 57/59/84
f 37/38/85 36/37/81 57/59/84 58/60/86
f 38/39/87 37/38/85 58/60/86 59/61/88
f 39/40/89 38/39/87 59/61/88 60/62/90
s off
f 114/139/91 113/140/92 115/141/93 116/142/94
s 2
f 41/42/95 40/41/96 61/63/97 62/64/98
f 42/43/99 41/42/95 62/64/98 63/65/100
f 22/44/44 42/43/99 63/65/100 43/66/45
s 7
f 44/46/101 43/45/102 64/67/103 65/68/104
f 45/47/105 44/46/101 65/68/104 66/69/106
f 46/48/107 45/47/105 66/69/106 67/70/108
f 47/49/109 46/48/107 67/70/108 68/71/110
f 48/50/111 47/49/109 68/71/110 69/72/112
f 49/51/113 48/50/111 69/72/112 70/73/114
f 50/52/115 49/51/113 70/73/114 71/74/116
f 51/53/117 50/52/115 71/74/116 72/75/118
f 52/54/119 51/53/117 72/75/118 73/76/120
f 53/55/121 52/54/119 73/76/120 74/77/122
f 54/56/123 53/55/121 74/77/122 75/78/124
f 55/57/125 54/56/123 75/78/124 76/79/126
f 56/58/127 55/57/125 76/79/126 77/80/128
f 57/59/129 56/58/127 77/80/128 78/81/130
f 58/60/131 57/59/129 78/81/130 79/82/132
f 59/61/133 58/60/131 79/82/132 80/83/134
f 60/62/135 59/61/133 80/83/134 81/84/136
f 61/63/137 60/62/135 81/84/136 82/85/138
f 62/64/139 61/63/137 82/85/138 83/86/140
f 63/65/141 62/64/139 83/86/140 84/87/142
f 43/66/102 63/65/141 84/87/142 64/88/103
s 8
f 65/68/143 64/67/144 1/89/145 2/90/146
f 66/69/147 65/68/143 2/90/146 3/91/148
f 67/70/149 66/69/147 3/91/148 4/92/150
f 68/71/151 67/70/149 4/92/150 5/93/152
f 69/72/153 68/71/151 5/93/152 6/94/154
f 70/73/155 69/72/153 6/94/154 7/95/156
f 71/74/157 70/73/155 7/95/156 8/96/158
f 72/75/159 71/74/157 8/96/158 9/97/160
f 73/76/161 72/75/159 9/97/160 10/98/162
f 74/77/163 73/76/161 10/98/162 11/99/164
f 75/78/165 74/77/163 11/99/164 12/100/166
f 76/79/167 75/78/165 12/100/166 13/101/168
f 77/80/169 76/79/167 13/101/168 14/102/170
f 78/81/171 77/80/169 14/102/170 15/103/172
f 79/82/173 78/81/171 15/103/172 16/104/174
f 80/83/175 79/82/173 16/104/174 17/105/176
f 81/84/177 80/83/175 17/105/176 18/106/178
f 82/85/179 81/84/177 18/106/178 19/107/180
f 83/86/181 82/85/179 19/107/180 20/108/182
f 84/87/183 83/86/181 20/108/182 21/109/184
f 64/88/144 84/87/183 21/109/184 1/110/145
s 2
f 24/25/52 23/24/43 85/112/185 86/111/186
f 23/24/43 44/46/46 87/113/187 85/112/185
f 44/46/46 45/47/53 88/114/188 87/113/187
f 45/47/53 24/25/52 86/111/186 88/114/188
f 29/30/66 28/29/59 89/116/189 90/115/190
f 28/29/59 49/51/60 91/117/191 89/116/189
f 49/51/60 50/52/67 92/118/192 91/117/191
f 50/52/67 29/30/66 90/115/190 92/118/192
f 35/36/82 34/35/75 93/120/193 94/119/194
f 34/35/75 55/57/76 95/121/195 93/120/193
f 55/57/76 56/58/83 96/122/196 95/121/195
f 56/58/83 35/36/82 94/119/194 96/122/196
f 40/41/96 39/40/89 97/124/197 98/123/198
f 39/40/89 60/62/90 99/125/199 97/124/197
f 60/62/90 61/63/97 100/126/200 99/125/199
f 61/63/97 40/41/96 98/123/198 100/126/200
s off
f 85/112/201 87/113/202 103/129/203 101/128/204
f 87/113/205 88/114/206 104/130/207 103/129/208
f 88/114/209 86/111/210 102/127/211 104/130/212
f 89/116/213 91/117/214 107/133/215 105/132/216
f 91/117/217 92/118/218 108/134/219 107/133/220
f 92/118/221 90/115/222 106/131/223 108/134/224
f 93/120/225 95/121/226 111/137/227 109/136/228
f 95/121/229 96/122/230 112/138/231 111/137/232
f 96/122/233 94/119/234 110/135/235 112/138/236
f 97/124/237 99/125/238 115/141/239 113/140/240
f 99/125/241 100/126/242 116/142/243 115/141/244
f 100/126/245 98/123/246 114/139/247 116/142/248
s 9
f 86/111/249 85/112/250 117/144/251 118/143/252
f 85/112/250 101/128/253 119/145/254 117/144/251
f 101/128/253 102/127/255 120/146/256 119/145/254
f 102/127/255 86/111/249 118/143/252 120/146/256
s 10
f 94/119/257 93/120/258 121/148/259 122/147/260
f 93/120/258 109/136/261 123/149/262 121/148/259
f 109/136/261 110/135/263 124/150/264 123/149/262
f 110/135/263 94/119/257 122/147/260 124/150/264
s off
f 118/143/265 117/144/266 122/147/267 121/148/268
f 117/144/269 119/145/270 124/150/271 122/147/272
f 119/145/273 120/146/274 123/149/275 124/150/276
f 120/146/277 118/143/278 121/148/279 123/149/280
s 11
f 90/115/281 89/116/282 125/152/283 126/151/284
f 89/116/282 105/132/285 127/153/286 125/152/283
f 105/132/285 106/131/287 128/154/288 127/153/286
f 106/131/287 90/115/281 126/151/284 128/154/288
s 12
f 98/123/289 97/124/290 129/156/291 130/155/292
f 97/124/290 113/140/293 131/157/294 129/156/291
f 113/140/293 114/139/295 132/158/296 131/157/294
f 114/139/295 98/123/289 130/155/292 132/158/296
s off
f 126/151/297 125/152/298 130/155/299 129/156/300
f 125/152/301 127/153/302 132/158/303 130/155/304
f 127/153/305 128/154/306 131/157/307 132/158/308
f 128/154/309 126/151/310 129/156/311 131/157/312
