# This file uses centimeters as units for non-parametric coordinates.

mtllib tunnel_Grande_A_piccolo.mtl
g default
v 24.000000 -0.499527 9.999997
v 24.000000 -0.499527 -9.999997
v 24.000000 0.499527 9.999997
v 24.000000 0.499527 -9.999997
v -26.000000 0.499527 9.999997
v -26.000000 0.499527 -9.999997
v -26.000000 -0.499527 9.999997
v -26.000000 -0.499527 -9.999997
v 24.000000 -0.499527 -9.009648
v 24.000000 0.499527 -9.009648
v -26.000000 0.499527 -9.009648
v -26.000000 -0.499527 -9.009648
v 24.000000 -0.499527 9.003935
v 24.000000 0.499527 9.003935
v -26.000000 0.499527 9.003935
v -26.000000 -0.499527 9.003935
v 13.876823 17.483860 -0.000000
v -26.000000 9.359760 -0.000000
v 15.965322 8.699261 8.056621
v -26.000000 3.652925 8.056623
v 15.965322 8.698280 7.255195
v -26.000000 3.651944 7.255195
v 15.965322 8.680510 -7.266553
v -26.000000 3.634174 -7.266555
v 15.965322 8.679533 -8.066482
v -26.000000 3.633193 -8.066484
vt 0.901661 0.050761
vt 0.901661 0.949239
vt 0.883708 0.949239
vt 0.883708 0.050761
vt 0.491156 0.949239
vt 0.491156 0.050761
vt 0.524318 0.050761
vt 0.524318 0.949239
vt 0.116555 0.949239
vt 0.116555 0.050761
vt 0.524318 0.032809
vt 0.883708 0.032808
vt 0.524318 0.967191
vt 0.883708 0.967191
vt 0.865912 0.032808
vt 0.135104 0.050761
vt 0.865912 0.050761
vt 0.865912 0.949239
vt 0.135104 0.949239
vt 0.865912 0.967191
vt 0.542216 0.032809
vt 0.472499 0.050761
vt 0.542216 0.050761
vt 0.542216 0.949239
vt 0.472499 0.949239
vt 0.542216 0.967191
vt 0.533267 0.949239
vt 0.533267 0.050761
vt 0.874810 0.949239
vt 0.874810 0.050761
vt 0.528955 0.050761
vt 0.528955 0.949239
vt 0.537579 0.050761
vt 0.537579 0.949239
vt 0.870515 0.050761
vt 0.870515 0.949239
vt 0.879107 0.050761
vt 0.879107 0.949239
vn 0.761508 0.648155 -0.000354
vn 1.000000 0.000000 0.000000
vn 1.000000 0.000000 0.000000
vn 0.959805 0.280667 -0.000153
vn -1.000000 0.000000 0.000000
vn -1.000000 0.000000 0.000000
vn -1.000000 0.000000 0.000000
vn -1.000000 0.000000 0.000000
vn 0.000000 -1.000000 0.000000
vn 0.000000 -1.000000 0.000000
vn 0.000000 -1.000000 0.000000
vn 0.000000 -1.000000 0.000000
vn 0.000000 0.000000 -1.000000
vn 0.000000 0.000000 -1.000000
vn -0.014679 0.267509 -0.963443
vn -0.012906 0.235202 -0.971861
vn 0.000000 0.000000 1.000000
vn 0.000000 0.000000 1.000000
vn -0.012943 0.235878 0.971697
vn -0.014710 0.268070 0.963287
vn 0.959955 0.280154 -0.000153
vn 1.000000 0.000000 0.000000
vn 1.000000 0.000000 0.000000
vn 0.760711 0.649091 -0.000354
vn -1.000000 0.000000 0.000000
vn -1.000000 0.000000 0.000000
vn -1.000000 0.000000 0.000000
vn -1.000000 0.000000 0.000000
vn 0.000000 -1.000000 0.000000
vn 0.000000 -1.000000 0.000000
vn 0.000000 -1.000000 0.000000
vn 0.000000 -1.000000 0.000000
vn 0.000000 1.000000 0.000000
vn 0.000000 1.000000 0.000000
vn 0.000000 1.000000 0.000000
vn 0.000000 1.000000 0.000000
vn -0.071204 0.546036 0.834730
vn -0.078607 0.576582 0.813249
vn 0.834543 0.550942 -0.000358
vn 0.765718 0.643177 -0.000374
vn 0.015601 -0.284318 -0.958603
vn 0.015601 -0.284318 -0.958603
vn 0.073051 -0.536137 -0.840964
vn 0.065955 -0.506015 -0.859999
vn -1.000000 0.000000 0.000000
vn -1.000000 0.000000 0.000000
vn 0.015598 -0.284262 0.958620
vn 0.015598 -0.284262 0.958620
vn 0.066044 -0.506315 0.859816
vn 0.073138 -0.536422 0.840775
vn 0.765032 0.643992 -0.000375
vn 0.834468 0.551056 -0.000358
vn -0.078679 0.576612 -0.813221
vn -0.071279 0.546066 -0.834704
vn -1.000000 0.000000 0.000000
vn -1.000000 0.000000 0.000000
vn -0.117596 0.730749 0.672441
vn -0.117596 0.730749 0.672441
vn 0.972941 0.231054 -0.000282
vn 0.111841 -0.694987 -0.710271
vn 0.111841 -0.694987 -0.710271
vn -1.000000 0.000000 0.000000
vn 0.111794 -0.694696 0.710562
vn 0.111794 -0.694696 0.710563
vn 0.972941 0.231053 -0.000282
vn -0.117519 0.730275 -0.672969
vn -0.117519 0.730275 -0.672969
vn -1.000000 0.000000 0.000000
s 1
g tunnel_rimpicciolimento pista
usemtl lambert2SG
f 3/7/1 1/11/2 13/21/3 14/23/4
s 2
f 7/13/5 5/8/6 15/24/7 16/26/8
s 3
f 1/6/9 7/5/10 16/25/11 13/22/12
s 4
f 2/1/13 8/2/14 6/3/15 4/4/16
s 5
f 7/5/17 1/6/18 3/7/19 5/8/20
s 1
f 10/17/21 9/15/22 2/12/23 4/4/24
s 2
f 12/20/25 11/18/26 6/3/27 8/14/28
s 3
f 9/16/29 12/19/30 8/9/31 2/10/32
s 1
f 14/23/4 13/21/3 9/15/22 10/17/21
s 2
f 16/26/8 15/24/7 11/18/26 12/20/25
s 3
f 13/22/12 16/25/11 12/19/30 9/16/29
s off
f 15/24/33 14/23/34 10/17/35 11/18/36
s 5
f 5/8/20 3/7/19 19/31/37 20/32/38
s 1
f 3/7/1 14/23/4 21/33/39 19/31/40
s 6
f 14/23/41 15/24/42 22/34/43 21/33/44
s 2
f 15/24/7 5/8/6 20/32/45 22/34/46
s 7
f 11/18/47 10/17/48 23/35/49 24/36/50
s 1
f 10/17/21 4/4/24 25/37/51 23/35/52
s 4
f 4/4/16 6/3/15 26/38/53 25/37/54
s 2
f 6/3/27 11/18/26 24/36/55 26/38/56
s 5
f 20/32/38 19/31/37 17/28/57 18/27/58
s 1
f 19/31/40 21/33/39 17/28/59
s 6
f 21/33/44 22/34/43 18/27/60 17/28/61
s 2
f 22/34/46 20/32/45 18/27/62
s 7
f 24/36/50 23/35/49 17/30/63 18/29/64
s 1
f 23/35/52 25/37/51 17/30/65
s 4
f 25/37/54 26/38/53 18/29/66 17/30/67
s 2
f 26/38/56 24/36/55 18/29/68
