# This file uses centimeters as units for non-parametric coordinates.

mtllib TUNNEL_CURVA.mtl
g tunnel_Grande_A_piccolo:default1
v 5.419993 -0.499527 27.249405
v 25.419987 -0.499527 27.249439
v 5.419993 0.499527 27.249405
v 25.419987 0.499527 27.249439
v -25.464270 0.499527 3.286957
v -25.464270 0.499527 -16.713036
v -25.464270 -0.499527 3.286957
v -25.464270 -0.499527 -16.713036
v 24.429632 -0.499527 27.249439
v 24.429632 0.499527 27.249439
v -25.464270 0.499527 -15.722687
v -25.464270 -0.499527 -15.722687
v 6.416052 -0.499527 27.249401
v 6.416052 0.499527 27.249401
v -25.464270 0.499527 2.290898
v -25.464270 -0.499527 2.290898
v 15.420000 17.483860 27.249420
v -25.464270 17.483860 -6.713039
v 7.363368 8.699261 27.249405
v -25.464270 8.698771 1.343586
v 8.164794 8.698280 27.249405
v -25.464270 8.697790 0.542157
v 22.686543 8.680510 27.249439
v -25.464270 8.698280 -13.979595
v 23.486469 8.679533 27.249439
v -25.464270 8.697300 -14.779522
g default
v -0.978932 -0.499527 3.147610
v 2.316442 -0.499527 -16.579027
v -0.977156 0.499527 3.147907
v 2.153262 -0.499527 -15.602215
v 2.155039 0.499527 -15.601917
v -0.642376 8.698989 1.233528
v 1.882385 8.690343 -13.880219
v 0.700714 17.483860 -6.710370
v -0.814813 -0.499527 2.165164
v 2.318217 0.499527 -16.578730
v -0.813036 0.499527 2.165457
v -0.510326 8.698009 0.443056
v 2.014192 8.689364 -14.669211
v 3.882090 -0.499527 6.515761
v 15.986654 -0.499527 -9.405270
v 3.882090 0.499527 6.515761
v 15.387271 -0.499527 -8.616899
v 15.110553 0.499527 -8.827282
v 5.058276 8.699034 4.968733
v 14.055585 8.688720 -7.439692
v 9.934379 17.483860 -1.444753
v 4.484934 -0.499527 5.722845
v 15.986654 0.499527 -9.405270
v 4.208223 0.499527 5.512461
v 5.266610 8.698053 4.120376
v 14.816437 8.687742 -7.866091
v 5.744100 -0.499527 11.927607
v 25.095890 -0.499527 6.877068
v 5.744100 0.499527 11.927607
v 24.137630 -0.499527 7.127156
v 24.137630 0.499527 7.127160
v 7.624489 8.699081 11.436848
v 22.451036 8.686989 7.567334
v 15.419996 17.483860 9.402342
v 6.707878 -0.499527 11.676075
v 25.095890 0.499527 6.877068
v 6.707878 0.499527 11.676075
v 8.399943 8.698101 11.234468
v 23.225031 8.686011 7.365323
vt 0.901661 0.050761
vt 0.901661 0.949239
vt 0.883708 0.949239
vt 0.883708 0.050761
vt 0.491156 0.949239
vt 0.491156 0.050761
vt 0.524318 0.050761
vt 0.524318 0.949239
vt 0.116555 0.949239
vt 0.116555 0.050761
vt 0.524318 0.032809
vt 0.883708 0.032808
vt 0.524318 0.967191
vt 0.883708 0.967191
vt 0.865912 0.032808
vt 0.135104 0.050761
vt 0.865912 0.050761
vt 0.865912 0.949239
vt 0.135104 0.949239
vt 0.865912 0.967191
vt 0.542216 0.032809
vt 0.472499 0.050761
vt 0.542216 0.050761
vt 0.542216 0.949239
vt 0.472499 0.949239
vt 0.542216 0.967191
vt 0.533267 0.949239
vt 0.533267 0.050761
vt 0.874810 0.949239
vt 0.874810 0.050761
vt 0.528955 0.050761
vt 0.528955 0.949239
vt 0.537579 0.050761
vt 0.537579 0.949239
vt 0.870515 0.050761
vt 0.870515 0.949239
vt 0.879107 0.050761
vt 0.879107 0.949239
vt 0.491156 0.548217
vt 0.901661 0.548217
vt 0.116555 0.548217
vt 0.524318 0.548184
vt 0.135104 0.548217
vt 0.865912 0.548184
vt 0.528955 0.547919
vt 0.870515 0.547919
vt 0.533267 0.547634
vt 0.874810 0.547634
vt 0.533267 0.547634
vt 0.874810 0.547634
vt 0.472499 0.548217
vt 0.883708 0.548184
vt 0.542216 0.548184
vt 0.537579 0.547919
vt 0.879107 0.547919
vt 0.491156 0.465879
vt 0.901661 0.465879
vt 0.116555 0.465879
vt 0.524318 0.465879
vt 0.135104 0.465879
vt 0.865912 0.465879
vt 0.528955 0.465879
vt 0.870515 0.465879
vt 0.533267 0.465879
vt 0.874810 0.465879
vt 0.533267 0.465879
vt 0.874810 0.465879
vt 0.472499 0.465879
vt 0.883708 0.465879
vt 0.542216 0.465879
vt 0.537579 0.465879
vt 0.879107 0.465879
vt 0.491156 0.378372
vt 0.901661 0.378372
vt 0.116555 0.378372
vt 0.524318 0.378372
vt 0.135104 0.378372
vt 0.865912 0.378372
vt 0.528955 0.378372
vt 0.870515 0.378372
vt 0.533267 0.378372
vt 0.874810 0.378372
vt 0.533267 0.378372
vt 0.874810 0.378372
vt 0.472499 0.378372
vt 0.883708 0.378372
vt 0.542216 0.378372
vt 0.537579 0.378372
vt 0.879107 0.378372
vn 0.761508 0.648155 -0.000354
vn 1.000000 0.000000 0.000000
vn 1.000000 0.000000 0.000000
vn 0.959805 0.280667 -0.000153
vn -1.000000 0.000000 0.000000
vn -1.000000 0.000000 0.000000
vn -1.000000 0.000000 0.000000
vn -1.000000 0.000000 0.000000
vn 0.000000 -1.000000 0.000000
vn 0.000000 -1.000000 -0.000000
vn 0.000000 -1.000000 -0.000000
vn 0.000000 -1.000000 0.000000
vn 0.000000 0.000000 -1.000000
vn 0.968443 0.000000 -0.249235
vn 0.968443 0.000000 -0.249235
vn -0.012906 0.235202 -0.971861
vn -0.014710 0.268070 0.963287
vn 0.000000 0.000000 1.000000
vn -0.109159 -0.000051 0.994024
vn -0.109570 -0.000050 0.993979
vn 0.959955 0.280154 -0.000153
vn 1.000000 0.000000 0.000000
vn 1.000000 0.000000 0.000000
vn 0.760711 0.649091 -0.000354
vn -1.000000 0.000000 0.000000
vn -1.000000 0.000000 0.000000
vn -1.000000 0.000000 0.000000
vn -1.000000 0.000000 0.000000
vn 0.000000 -1.000000 0.000000
vn -0.000000 -1.000000 -0.000000
vn -0.000000 -1.000000 -0.000000
vn 0.000000 -1.000000 0.000000
vn 0.959805 0.280667 -0.000153
vn 1.000000 0.000000 0.000000
vn 1.000000 0.000000 0.000000
vn 0.959955 0.280154 -0.000153
vn -1.000000 0.000000 0.000000
vn -1.000000 0.000000 0.000000
vn -1.000000 0.000000 0.000000
vn -1.000000 0.000000 0.000000
vn 0.000000 -1.000000 0.000000
vn -0.000000 -1.000000 0.000000
vn -0.000000 -1.000000 0.000000
vn 0.000000 -1.000000 0.000000
vn 0.000000 1.000000 0.000000
vn 0.000000 1.000000 0.000000
vn -0.000000 1.000000 0.000000
vn -0.000000 1.000000 0.000000
vn -0.078607 0.576582 0.813249
vn -0.014710 0.268070 0.963287
vn -0.113826 0.233700 0.965623
vn -0.107470 0.233526 0.966393
vn 0.761508 0.648155 -0.000354
vn 0.959805 0.280667 -0.000153
vn 0.834543 0.550942 -0.000358
vn 0.765718 0.643177 -0.000374
vn 0.015601 -0.284318 -0.958603
vn 0.972604 -0.205300 -0.109061
vn 0.972279 -0.205270 -0.111969
vn 0.065955 -0.506015 -0.859999
vn -1.000000 0.000000 0.000000
vn -1.000000 0.000000 0.000000
vn -1.000000 0.000000 0.000000
vn -1.000000 0.000000 0.000000
vn 0.073138 -0.536422 0.840775
vn 0.015598 -0.284262 0.958620
vn -0.159296 -0.210228 0.964588
vn -0.163993 -0.210249 0.963795
vn 0.959955 0.280154 -0.000153
vn 0.760711 0.649091 -0.000354
vn 0.765032 0.643992 -0.000375
vn 0.834468 0.551056 -0.000358
vn -0.012906 0.235202 -0.971861
vn 0.943967 0.228802 -0.237859
vn 0.943864 0.228795 -0.238272
vn -0.071279 0.546066 -0.834704
vn -1.000000 0.000000 0.000000
vn -1.000000 0.000000 0.000000
vn -1.000000 0.000000 0.000000
vn -1.000000 0.000000 0.000000
vn -0.117596 0.730749 0.672441
vn -0.078607 0.576582 0.813249
vn -0.104845 0.680994 0.724745
vn -0.091541 0.680454 0.727050
vn 0.765718 0.643177 -0.000374
vn 0.834543 0.550942 -0.000358
vn 0.972941 0.231054 -0.000282
vn 0.065955 -0.506015 -0.859999
vn 0.763751 -0.634229 -0.120159
vn 0.763012 -0.634181 -0.125009
vn 0.111841 -0.694987 -0.710271
vn -1.000000 0.000000 0.000000
vn -1.000000 0.000000 0.000000
vn -1.000000 0.000000 0.000000
vn 0.111794 -0.694696 0.710563
vn 0.073138 -0.536422 0.840775
vn -0.113681 -0.641834 0.758371
vn -0.125217 -0.642101 0.756324
vn 0.834468 0.551056 -0.000358
vn 0.765032 0.643992 -0.000375
vn 0.972941 0.231053 -0.000282
vn -0.071279 0.546066 -0.834704
vn 0.721817 0.673412 -0.159679
vn 0.722032 0.673446 -0.158555
vn -0.117519 0.730275 -0.672969
vn -1.000000 0.000000 0.000000
vn -1.000000 0.000000 0.000000
vn -1.000000 0.000000 0.000000
vn 0.000000 -1.000000 0.000000
vn 0.000000 -1.000000 0.000000
vn 0.000000 -1.000000 0.000000
vn 0.000000 -1.000000 0.000000
vn 0.004829 0.000145 -0.999988
vn 0.173866 -0.000008 -0.984769
vn 0.173378 -0.000007 -0.984855
vn 0.000000 0.000000 -1.000000
vn 0.000000 -1.000000 0.000000
vn 0.000000 -1.000000 0.000000
vn 0.000000 -1.000000 0.000000
vn 0.000000 -1.000000 0.000000
vn 0.000000 -1.000000 -0.000000
vn 0.000000 -1.000000 -0.000000
vn 0.000000 -1.000000 -0.000000
vn 0.000000 -1.000000 0.000000
vn -0.004428 -0.207027 -0.978325
vn 0.106747 -0.211093 -0.971620
vn 0.112017 -0.211221 -0.970998
vn 0.015601 -0.284318 -0.958603
vn 0.004342 0.228389 -0.973560
vn 0.169274 0.232110 -0.957847
vn 0.164010 0.232090 -0.958768
vn -0.014679 0.267509 -0.963444
vn -0.001456 -0.634010 -0.773324
vn 0.095541 -0.641079 -0.761505
vn 0.108155 -0.641548 -0.759420
vn 0.073051 -0.536137 -0.840964
vn 0.001656 0.673718 -0.738987
vn 0.122419 0.680503 -0.722446
vn 0.110510 0.680283 -0.724570
vn -0.078679 0.576612 -0.813221
vn -0.794002 0.000206 0.607915
vn -0.794002 0.000206 0.607915
vn -0.000000 1.000000 0.000000
vn -0.000000 1.000000 0.000000
vn -0.771270 0.227233 0.594565
vn -0.757558 0.227523 0.611832
vn -0.701519 -0.206929 0.681947
vn -0.707618 -0.206795 0.675657
vn -0.570626 0.671754 0.472369
vn -0.545536 0.672935 0.499549
vn -0.551792 -0.633552 0.542344
vn -0.576124 -0.631944 0.518390
vn 0.000000 -1.000000 -0.000000
vn 0.000000 -1.000000 -0.000000
vn 0.717390 -0.000132 -0.696672
vn 0.717390 -0.000132 -0.696672
vn -0.000000 -1.000000 -0.000000
vn -0.000000 -1.000000 -0.000000
vn -0.000000 -1.000000 0.000000
vn -0.000000 -1.000000 0.000000
vn 0.755432 -0.205857 -0.622050
vn 0.766051 -0.205622 -0.609003
vn 0.703241 0.228438 -0.673252
vn 0.696257 0.228595 -0.680420
vn 0.572525 -0.635187 -0.518414
vn 0.589349 -0.634641 -0.499899
vn 0.547308 0.673008 -0.497508
vn 0.528576 0.673922 -0.516176
vn -0.997260 0.000000 0.073971
vn -0.997260 0.000000 0.073971
vn -0.000000 1.000000 0.000000
vn -0.000000 1.000000 0.000000
vn -0.970503 0.225769 0.084575
vn -0.970182 0.225696 0.088365
vn -0.948283 -0.207453 0.240256
vn -0.948157 -0.207446 0.240761
vn -0.733284 0.671362 0.107554
vn -0.732518 0.671218 0.113507
vn -0.755851 -0.632902 0.167704
vn -0.756028 -0.632939 0.166762
vn 0.000000 0.000000 1.000000
vn -0.012943 0.235878 0.971696
vn 0.000000 1.000000 0.000000
vn 0.000000 1.000000 0.000000
vn -0.012943 0.235878 0.971696
vn -0.071204 0.546036 0.834730
vn 0.015598 -0.284262 0.958620
vn 0.066044 -0.506315 0.859816
vn -0.071204 0.546036 0.834730
vn -0.117596 0.730749 0.672441
vn 0.066044 -0.506315 0.859816
vn 0.111794 -0.694696 0.710562
s off
g tunnel_Grande_A_piccolo:pista tunnel_Grande_A_piccolo:tunnel_rimpicciolimento polySurface1
usemtl initialShadingGroup
f 3/7/1 1/11/2 13/21/3 14/23/4
f 7/13/5 5/8/6 15/24/7 16/26/8
s 1
f 1/6/9 53/73/10 61/85/11 13/22/12
s 2
f 2/1/13 54/74/14 62/86/15 4/4/16
s 3
f 5/8/17 7/5/18 27/39/19 29/42/20
s off
f 10/17/21 9/15/22 2/12/23 4/4/24
f 12/20/25 11/18/26 6/3/27 8/14/28
s 4
f 9/16/29 56/77/30 54/75/31 2/10/32
s off
f 14/23/33 13/21/34 9/15/35 10/17/36
f 16/26/37 15/24/38 11/18/39 12/20/40
s 5
f 13/22/41 61/85/42 56/77/43 9/16/44
s 6
f 11/18/45 15/24/46 37/53/47 31/44/48
s 7
f 20/32/49 5/8/50 29/42/51 32/45/52
s off
f 3/7/53 14/23/54 21/33/55 19/31/56
s 8
f 14/23/57 63/87/58 64/88/59 21/33/60
s off
f 15/24/61 5/8/62 20/32/63 22/34/64
s 9
f 24/36/65 11/18/66 31/44/67 33/46/68
s off
f 10/17/69 4/4/70 25/37/71 23/35/72
s 10
f 4/4/73 62/86/74 65/89/75 25/37/76
s off
f 6/3/77 11/18/78 24/36/79 26/38/80
s 11
f 18/27/81 20/32/82 32/45/83 34/47/84
s off
f 19/31/85 21/33/86 17/28/87
s 12
f 21/33/88 64/88/89 60/83/90 17/28/91
s off
f 22/34/92 20/32/93 18/27/94
s 13
f 18/29/95 24/36/96 33/46/97 34/48/98
s off
f 23/35/99 25/37/100 17/30/101
s 14
f 25/37/102 65/89/103 60/84/104 17/30/105
s off
f 26/38/106 24/36/107 18/29/108
s 1
f 16/25/109 35/51/110 27/39/111 7/5/112
s 2
f 6/3/113 36/52/114 28/40/115 8/2/116
s 4
f 8/9/117 28/41/118 30/43/119 12/19/120
s 5
f 12/19/121 30/43/122 35/51/123 16/25/124
s 8
f 22/34/125 38/54/126 37/53/127 15/24/128
s 10
f 26/38/129 39/55/130 36/52/131 6/3/132
s 12
f 18/27/133 34/49/134 38/54/135 22/34/136
s 14
f 18/29/137 34/50/138 39/55/139 26/38/140
s 3
f 29/42/20 27/39/19 40/56/141 42/59/142
s 6
f 31/44/48 37/53/47 50/70/143 44/61/144
s 7
f 32/45/52 29/42/51 42/59/145 45/62/146
s 9
f 33/46/68 31/44/67 44/61/147 46/63/148
s 11
f 34/47/84 32/45/83 45/62/149 47/64/150
s 13
f 34/48/98 33/46/97 46/63/151 47/65/152
s 1
f 48/68/153 40/56/154 27/39/111 35/51/110
s 2
f 49/69/155 41/57/156 28/40/115 36/52/114
s 4
f 41/58/157 43/60/158 30/43/119 28/41/118
s 5
f 43/60/159 48/68/160 35/51/123 30/43/122
s 8
f 51/71/161 50/70/162 37/53/127 38/54/126
s 10
f 52/72/163 49/69/164 36/52/131 39/55/130
s 12
f 47/66/165 51/71/166 38/54/135 34/49/134
s 14
f 47/67/167 52/72/168 39/55/139 34/50/138
s 3
f 42/59/142 40/56/141 53/73/169 55/76/170
s 6
f 44/61/144 50/70/143 63/87/171 57/78/172
s 7
f 45/62/146 42/59/145 55/76/173 58/79/174
s 9
f 46/63/148 44/61/147 57/78/175 59/80/176
s 11
f 47/64/150 45/62/149 58/79/177 60/81/178
s 13
f 47/65/152 46/63/151 59/80/179 60/82/180
s 1
f 61/85/11 53/73/10 40/56/154 48/68/153
s 2
f 62/86/15 54/74/14 41/57/156 49/69/155
s 4
f 54/75/31 56/77/30 43/60/158 41/58/157
s 5
f 56/77/43 61/85/42 48/68/160 43/60/159
s 8
f 64/88/59 63/87/58 50/70/162 51/71/161
s 10
f 65/89/75 62/86/74 49/69/164 52/72/163
s 12
f 60/83/90 64/88/89 51/71/166 47/66/165
s 14
f 60/84/104 65/89/103 52/72/168 47/67/167
s 3
f 55/76/170 53/73/169 1/6/181 3/7/182
s 6
f 57/78/172 63/87/171 14/23/183 10/17/184
s 7
f 58/79/174 55/76/173 3/7/185 19/31/186
s 9
f 59/80/176 57/78/175 10/17/187 23/35/188
s 11
f 60/81/178 58/79/177 19/31/189 17/28/190
s 13
f 60/82/180 59/80/179 23/35/191 17/30/192
