# This file uses centimeters as units for non-parametric coordinates.

mtllib discesa.mtl
g default
v 9.999997 0.330299 -24.086521
v 8.008798 0.330299 -24.086521
v -7.990438 0.330299 -24.086521
v -9.999997 0.330299 -24.086521
v 9.999997 1.376984 -24.086519
v 8.008796 1.376984 -24.086519
v -7.990434 1.376984 -24.086519
v -9.999997 1.376984 -24.086519
v 9.999997 10.677379 24.209780
v 8.008796 10.677379 24.209780
v -7.990434 10.677379 24.209780
v -9.999997 10.677379 24.209780
v 9.999997 9.712365 24.209778
v 8.008798 9.712365 24.209778
v -7.990437 9.712365 24.209778
v -9.999997 9.712365 24.209778
v 9.999997 6.617989 -24.086523
v 9.999997 15.507032 24.209782
v 8.008796 6.617989 -24.086523
v 8.008796 15.507032 24.209782
v -9.999997 6.617989 -24.086523
v -9.999997 15.507032 24.209782
v -7.990434 15.507032 24.209782
v -7.990434 6.617989 -24.086523
v 9.999997 10.733543 14.220217
v 8.008796 10.733543 14.220217
v -7.990434 10.733543 14.220217
v -9.999997 10.733543 14.220217
v 9.999997 9.699244 14.220217
v 8.008798 9.699244 14.220217
v -7.990437 9.699244 14.220217
v -9.999997 9.699244 14.220217
v 9.999997 15.909949 14.220218
v 8.008796 15.909949 14.220218
v -9.999997 15.909949 14.220218
v -7.990435 15.909949 14.220218
v 9.999997 1.376984 -12.789259
v 8.008796 1.376984 -12.789259
v -7.990435 1.376984 -12.789259
v -9.999997 1.376984 -12.789259
v 9.999997 6.617996 -12.789259
v 8.008796 6.617996 -12.789259
v -9.999997 6.617996 -12.789259
v -7.990435 6.617996 -12.789259
v 9.999997 0.330299 -12.789264
v 8.008798 0.330299 -12.789264
v -7.990438 0.330299 -12.789264
v -9.999997 0.330299 -12.789264
vt 0.375000 0.000000
vt 0.458333 0.000000
vt 0.541667 0.000000
vt 0.625000 0.000000
vt 0.375000 0.250000
vt 0.458333 0.250000
vt 0.541667 0.250000
vt 0.625000 0.250000
vt 0.375000 0.500000
vt 0.458333 0.500000
vt 0.541667 0.500000
vt 0.625000 0.500000
vt 0.375000 0.750000
vt 0.458333 0.750000
vt 0.541667 0.750000
vt 0.625000 0.750000
vt 0.375000 1.000000
vt 0.458333 1.000000
vt 0.541667 1.000000
vt 0.625000 1.000000
vt 0.875000 0.000000
vt 0.875000 0.250000
vt 0.125000 0.000000
vt 0.125000 0.250000
vt 0.000000 0.000000
vt 1.000000 0.000000
vt 1.000000 0.070630
vt 0.000000 0.070630
vt 0.000000 0.000000
vt 1.000000 0.000000
vt 1.000000 0.070630
vt 0.000000 0.070630
vt 0.000000 0.000000
vt 1.000000 0.000000
vt 1.000000 0.070630
vt 0.000000 0.070630
vt 0.000000 0.000000
vt 1.000000 0.000000
vt 1.000000 0.070630
vt 0.000000 0.070630
vt 0.176710 0.250000
vt 0.206839 0.000000
vt 0.206839 0.070630
vt 0.458333 0.448290
vt 0.541667 0.448290
vt 0.793161 0.070630
vt 0.793161 0.000000
vt 0.823290 0.250000
vt 0.175371 0.000000
vt 0.375000 0.800371
vt 0.458333 0.800371
vt 0.541667 0.800371
vt 0.625000 0.800371
vt 0.824629 0.000000
vt 0.233634 0.000000
vt 0.233634 0.070630
vt 0.766366 0.000000
vt 0.766366 0.070630
vt 0.316521 0.250000
vt 0.766084 0.000000
vt 0.766084 0.070630
vt 0.458333 0.308479
vt 0.541667 0.308479
vt 0.233916 0.070630
vt 0.233916 0.000000
vt 0.683479 0.250000
vt 0.792879 0.000000
vt 0.792879 0.070630
vt 0.207121 0.000000
vt 0.207121 0.070630
vt 0.315183 0.000000
vt 0.375000 0.940183
vt 0.458333 0.940183
vt 0.541667 0.940183
vt 0.625000 0.940183
vt 0.684817 0.000000
vn 0.000000 0.000002 -1.000000
vn 0.000000 0.000002 -1.000000
vn 0.000000 0.000001 -1.000000
vn 0.000000 -0.000000 -1.000000
vn 0.000000 0.000002 -1.000000
vn 0.000000 0.000001 -1.000000
vn 0.000000 0.000002 -1.000000
vn 0.000000 -0.000000 -1.000000
vn 0.000000 1.000000 0.000000
vn 0.000000 1.000000 0.000000
vn 0.000000 0.971442 -0.237278
vn 0.000000 0.971442 -0.237278
vn 0.000000 -0.000001 1.000000
vn 0.000000 -0.000001 1.000000
vn 0.000000 -0.000002 1.000000
vn 0.000000 -0.000002 1.000000
vn 0.000000 -0.000001 1.000000
vn 0.000000 -0.000002 1.000000
vn 0.000000 -0.000001 1.000000
vn 0.000000 -0.000002 1.000000
vn 0.000000 -0.999999 0.001313
vn 0.000000 -0.999999 0.001314
vn 0.000000 -0.969321 0.245797
vn 0.000000 -0.969321 0.245797
vn 0.000000 -0.999999 0.001314
vn 0.000000 -0.969321 0.245797
vn 0.000000 -0.999999 0.001314
vn 0.000000 -0.969322 0.245797
vn -1.000000 -0.000000 0.000000
vn -1.000000 -0.000000 0.000000
vn -1.000000 -0.000000 0.000000
vn -1.000000 -0.000000 0.000000
vn 1.000000 0.000000 0.000000
vn 1.000000 0.000000 0.000000
vn 1.000000 -0.000000 0.000000
vn 1.000000 0.000000 0.000000
vn 0.000000 0.999188 0.040301
vn 0.000000 0.972332 -0.233603
vn 0.000000 0.972332 -0.233603
vn 0.000000 0.999188 0.040301
vn 1.000000 -0.000000 0.000000
vn 1.000000 -0.000000 0.000000
vn 0.000000 -0.000001 -1.000000
vn 0.000000 -0.000001 -1.000000
vn -1.000000 -0.000000 0.000000
vn -1.000000 -0.000000 0.000000
vn -1.000000 -0.000000 0.000000
vn -1.000000 -0.000000 0.000000
vn 0.000000 -0.000000 1.000000
vn 0.000000 -0.000000 1.000000
vn 0.000000 1.000000 -0.000001
vn 0.000000 0.971818 -0.235731
vn 0.000000 0.971818 -0.235731
vn 0.000000 1.000000 -0.000001
vn -1.000000 -0.000000 0.000000
vn -1.000000 -0.000000 0.000000
vn 0.000000 -0.000000 1.000000
vn 0.000000 -0.000000 1.000000
vn 1.000000 0.000000 -0.000000
vn 1.000000 0.000000 -0.000000
vn 1.000000 0.000000 -0.000000
vn 1.000000 0.000000 -0.000000
vn 0.000000 -0.000001 -1.000000
vn 0.000000 -0.000001 -1.000000
vn 0.000000 0.969829 -0.243785
vn 0.000000 0.969829 -0.243785
vn 0.000000 0.999984 0.005622
vn 0.000000 0.999984 0.005622
vn 0.000000 -0.971369 0.237575
vn 0.000000 -0.971369 0.237575
vn 0.000000 -0.971369 0.237575
vn 0.000000 -0.971369 0.237575
vn -1.000000 -0.000000 0.000000
vn -1.000000 0.000000 0.000000
vn -1.000000 0.000000 0.000000
vn -1.000000 -0.000000 0.000000
vn 1.000000 0.000000 0.000000
vn 1.000000 0.000000 0.000000
vn 0.000000 0.971818 -0.235731
vn 0.000000 0.971818 -0.235731
vn 1.000000 0.000000 0.000000
vn -1.000000 -0.000000 0.000000
vn -1.000000 -0.000000 0.000000
vn -1.000000 0.000000 0.000000
vn -1.000000 0.000000 0.000000
vn 0.000000 0.972332 -0.233603
vn 0.000000 0.972332 -0.233603
vn 0.000000 0.999188 0.040301
vn 0.000000 0.999188 0.040301
vn -1.000000 -0.000000 0.000000
vn -1.000000 -0.000000 0.000000
vn 1.000000 0.000000 -0.000000
vn 1.000000 0.000000 -0.000000
vn 0.000000 -1.000000 0.000000
vn 0.000000 -1.000000 0.000000
vn 0.000000 -1.000000 0.000000
vn 0.000000 -1.000000 0.000000
vn 1.000000 0.000000 0.000000
vn 1.000000 0.000000 0.000000
vn 0.000000 1.000000 -0.000001
vn 0.000000 1.000000 -0.000001
vn 1.000000 0.000000 0.000000
vn 1.000000 0.000000 0.000000
vn 1.000000 0.000000 0.000000
s 1
g discesa
usemtl initialShadingGroup
f 1/1/1 2/2/2 6/6/3 5/5/4
f 2/2/2 3/3/5 7/7/6 6/6/3
f 3/3/5 4/4/7 8/8/8 7/7/6
s 2
f 6/6/9 7/7/10 39/63/11 38/62/12
s 3
f 9/9/13 10/10/14 14/14/15 13/13/16
f 10/10/14 11/11/17 15/15/18 14/14/15
f 11/11/17 12/12/19 16/16/20 15/15/18
s 4
f 13/13/21 14/14/22 30/51/23 29/50/24
f 14/14/22 15/15/25 31/52/26 30/51/23
f 15/15/25 16/16/27 32/53/28 31/52/26
s 5
f 4/4/29 48/76/30 40/66/31 8/8/32
s 6
f 13/23/33 29/49/34 25/41/35 9/24/36
s 7
f 18/29/37 33/55/38 34/56/39 20/32/40
s 6
f 9/25/36 25/42/35 33/55/41 18/29/42
s 1
f 5/26/4 6/27/3 19/31/43 17/30/44
s 8
f 6/27/45 38/61/46 42/68/47 19/31/48
s 3
f 10/28/14 9/25/13 18/29/49 20/32/50
s 9
f 21/37/51 43/69/52 44/70/53 24/40/54
s 5
f 8/33/32 40/65/31 43/69/55 21/37/56
s 3
f 12/34/19 11/35/17 23/39/57 22/38/58
s 10
f 11/35/59 27/46/60 36/58/61 23/39/62
s 1
f 7/36/6 8/33/8 21/37/63 24/40/64
s 2
f 26/44/65 27/45/66 11/11/67 10/10/68
s 4
f 29/50/24 30/51/23 46/73/69 45/72/70
f 30/51/23 31/52/26 47/74/71 46/73/69
f 31/52/26 32/53/28 48/75/72 47/74/71
s 5
f 28/48/73 32/54/74 16/21/75 12/22/76
s 6
f 25/41/35 29/49/34 45/71/77 37/59/78
s 7
f 34/56/39 33/55/38 41/67/79 42/68/80
s 6
f 33/55/41 25/42/35 37/60/78 41/67/81
s 8
f 34/56/82 26/43/83 10/28/84 20/32/85
s 9
f 36/58/86 35/57/87 22/38/88 23/39/89
s 5
f 35/57/90 28/47/73 12/34/76 22/38/91
s 10
f 36/58/61 27/46/60 39/64/92 44/70/93
s 2
f 38/62/12 39/63/11 27/45/66 26/44/65
s 5
f 40/66/31 48/76/30 32/54/74 28/48/73
s 8
f 42/68/47 38/61/46 26/43/83 34/56/82
s 9
f 44/70/53 43/69/52 35/57/87 36/58/86
s 5
f 43/69/55 40/65/31 28/47/73 35/57/90
s 4
f 45/72/70 46/73/69 2/18/94 1/17/95
f 46/73/69 47/74/71 3/19/96 2/18/94
f 47/74/71 48/75/72 4/20/97 3/19/96
s 6
f 37/59/78 45/71/77 1/1/98 5/5/99
s 7
f 42/68/80 41/67/79 17/30/100 19/31/101
s 6
f 41/67/81 37/60/78 5/26/99 17/30/102
s 10
f 44/70/93 39/64/92 7/36/103 24/40/104
