# This file uses centimeters as units for non-parametric coordinates.

mtllib dritto.mtl
g default
v 10.015714 0.000000 -25.000000
v 8.024516 0.000000 -25.000000
v -7.974722 0.000000 -25.000000
v -9.984281 0.000000 -25.000000
v 10.015714 0.999054 -25.000000
v 8.024513 0.999054 -25.000000
v -7.974719 0.999054 -25.000000
v -9.984281 0.999054 -25.000000
v 10.015714 0.999054 25.000000
v 8.024513 0.999054 25.000000
v -7.974719 0.999054 25.000000
v -9.984281 0.999054 25.000000
v 10.015714 0.000000 25.000000
v 8.024516 0.000000 25.000000
v -7.974722 0.000000 25.000000
v -9.984281 0.000000 25.000000
v 10.015714 5.999054 -25.000000
v 10.015714 5.999054 25.000000
v 8.024513 5.999054 -25.000000
v 8.024513 5.999054 25.000000
v -9.984281 5.999054 -25.000000
v -9.984281 5.999054 25.000000
v -7.974719 5.999054 25.000000
v -7.974719 5.999054 -25.000000
vt 0.375000 0.000000
vt 0.458333 0.000000
vt 0.541667 0.000000
vt 0.625000 0.000000
vt 0.375000 0.250000
vt 0.458333 0.250000
vt 0.541667 0.250000
vt 0.625000 0.250000
vt 0.375000 0.500000
vt 0.458333 0.500000
vt 0.541667 0.500000
vt 0.625000 0.500000
vt 0.375000 0.750000
vt 0.458333 0.750000
vt 0.541667 0.750000
vt 0.625000 0.750000
vt 0.375000 1.000000
vt 0.458333 1.000000
vt 0.541667 1.000000
vt 0.625000 1.000000
vt 0.875000 0.000000
vt 0.875000 0.250000
vt 0.125000 0.000000
vt 0.125000 0.250000
vt 0.000000 0.000000
vt 1.000000 0.000000
vt 1.000000 0.070630
vt 0.000000 0.070630
vt 0.000000 0.000000
vt 1.000000 0.000000
vt 1.000000 0.070630
vt 0.000000 0.070630
vt 0.000000 0.000000
vt 1.000000 0.000000
vt 1.000000 0.070630
vt 0.000000 0.070630
vt 0.000000 0.000000
vt 1.000000 0.000000
vt 1.000000 0.070630
vt 0.000000 0.070630
vn 0.000000 0.000000 -1.000000
vn 0.000000 0.000000 -1.000000
vn 0.000000 0.000000 -1.000000
vn 0.000000 0.000000 -1.000000
vn 0.000000 0.000000 -1.000000
vn 0.000000 0.000000 -1.000000
vn 0.000000 0.000000 -1.000000
vn 0.000000 0.000000 -1.000000
vn 0.000000 1.000000 0.000000
vn 0.000000 1.000000 0.000000
vn 0.000000 1.000000 0.000000
vn 0.000000 1.000000 0.000000
vn 0.000000 0.000000 1.000000
vn 0.000000 0.000000 1.000000
vn 0.000000 0.000000 1.000000
vn 0.000000 0.000000 1.000000
vn 0.000000 0.000000 1.000000
vn 0.000000 0.000000 1.000000
vn 0.000000 0.000000 1.000000
vn 0.000000 0.000000 1.000000
vn 0.000000 -1.000000 0.000000
vn 0.000000 -1.000000 0.000000
vn 0.000000 -1.000000 0.000000
vn 0.000000 -1.000000 0.000000
vn 0.000000 -1.000000 0.000000
vn 0.000000 -1.000000 0.000000
vn 0.000000 -1.000000 0.000000
vn 0.000000 -1.000000 0.000000
vn -1.000000 0.000000 0.000000
vn -1.000000 0.000000 0.000000
vn -1.000000 0.000000 0.000000
vn -1.000000 0.000000 0.000000
vn 1.000000 0.000000 0.000000
vn 1.000000 0.000000 0.000000
vn 1.000000 0.000000 0.000000
vn 1.000000 0.000000 0.000000
vn 0.000000 1.000000 0.000000
vn 0.000000 1.000000 0.000000
vn 0.000000 1.000000 0.000000
vn 0.000000 1.000000 0.000000
vn 1.000000 0.000000 0.000000
vn 1.000000 0.000000 0.000000
vn 0.000000 0.000000 -1.000000
vn 0.000000 0.000000 -1.000000
vn -1.000000 0.000000 0.000000
vn -1.000000 0.000000 0.000000
vn -1.000000 0.000000 0.000000
vn -1.000000 0.000000 0.000000
vn 0.000000 0.000000 1.000000
vn 0.000000 0.000000 1.000000
vn 0.000000 1.000000 0.000000
vn 0.000000 1.000000 0.000000
vn 0.000000 1.000000 0.000000
vn 0.000000 1.000000 0.000000
vn -1.000000 0.000000 0.000000
vn -1.000000 0.000000 0.000000
vn 0.000000 0.000000 1.000000
vn 0.000000 0.000000 1.000000
vn 1.000000 0.000000 0.000000
vn 1.000000 0.000000 0.000000
vn 1.000000 0.000000 0.000000
vn 1.000000 0.000000 0.000000
vn 0.000000 0.000000 -1.000000
vn 0.000000 0.000000 -1.000000
s 1
g dritto1
usemtl initialShadingGroup
f 1/1/1 2/2/2 6/6/3 5/5/4
f 2/2/2 3/3/5 7/7/6 6/6/3
f 3/3/5 4/4/7 8/8/8 7/7/6
s off
f 6/6/9 7/7/10 11/11/11 10/10/12
s 2
f 9/9/13 10/10/14 14/14/15 13/13/16
f 10/10/14 11/11/17 15/15/18 14/14/15
f 11/11/17 12/12/19 16/16/20 15/15/18
s 3
f 13/13/21 14/14/22 2/18/23 1/17/24
f 14/14/22 15/15/25 3/19/26 2/18/23
f 15/15/25 16/16/27 4/20/28 3/19/26
s 4
f 4/4/29 16/21/30 12/22/31 8/8/32
s 5
f 13/23/33 1/1/34 5/5/35 9/24/36
s off
f 18/29/37 17/30/38 19/31/39 20/32/40
s 5
f 9/25/36 5/26/35 17/30/41 18/29/42
s 1
f 5/26/4 6/27/3 19/31/43 17/30/44
s off
f 6/27/45 10/28/46 20/32/47 19/31/48
s 2
f 10/28/14 9/25/13 18/29/49 20/32/50
s off
f 21/37/51 22/38/52 23/39/53 24/40/54
s 4
f 8/33/32 12/34/31 22/38/55 21/37/56
s 2
f 12/34/19 11/35/17 23/39/57 22/38/58
s off
f 11/35/59 7/36/60 24/40/61 23/39/62
s 1
f 7/36/6 8/33/8 21/37/63 24/40/64
